#!OML:ASF F:\VICON\USERDATA\INSTALL\rory3\rory3.ASF
:FULLY-SPECIFIED
:DEGREES
3014
root -4.7446 18.6673 2.90355 -4.32806 -9.57715 7.12077
lowerback 17.196 6.72978 3.05098
upperback 5.84323 9.26163 -1.05819
thorax -2.61053 4.63148 -4.52193
lowerneck -13.3908 -2.49896 -5.07835
upperneck 3.32683 -2.92798 6.35622
head 3.32006 -1.21796 2.56826
rclavicle 4.94974e-014 3.18055e-015
rhumerus 47.3317 -27.8172 -86.6897
rradius 126.879
rwrist -47.6541
rhand -18.1684 6.34732
rfingers 7.12502
rthumb 8.10778 -23.4771
lclavicle 4.94974e-014 3.18055e-015
lhumerus -50.0526 30.0111 35.362
lradius 45.3541
lwrist 29.6925
lhand -32.5466 16.6697
lfingers 7.12502
lthumb -5.77651 46.571
rfemur -10.8479 12.1369 17.3255
rtibia 33.4862
rfoot -18.4011 -8.43449
rtoes 2.93398
lfemur -73.1978 3.57014 -12.8193
ltibia 106.285
lfoot 9.04891 -0.696725
ltoes 4.22229
3015
root -4.74815 18.6551 2.879 -4.58271 -9.79986 7.27677
lowerback 17.7075 6.93972 3.05743
upperback 5.99809 9.54301 -1.02146
thorax -2.68993 4.76923 -4.59103
lowerneck -13.8121 -2.60704 -5.02359
upperneck 3.56897 -3.05969 6.16187
head 3.46317 -1.28316 2.48688
rclavicle -5.56597e-015 3.18055e-015
rhumerus 47.3491 -27.0641 -87.2095
rradius 127.423
rwrist -47.5922
rhand -17.9662 6.92409
rfingers 7.12502
rthumb 8.30295 -22.8927
lclavicle -5.56597e-015 3.18055e-015
lhumerus -50.3039 30.3664 34.8692
lradius 44.4651
lwrist 30.3689
lhand -33.4121 16.7951
lfingers 7.12502
lthumb -6.6121 46.6719
rfemur -10.7195 12.1491 17.2035
rtibia 33.4838
rfoot -18.378 -8.08968
rtoes 2.92986
lfemur -74.9819 3.65233 -13.1173
ltibia 107.757
lfoot 9.26449 -0.844611
ltoes 4.66106
3016
root -4.75289 18.6529 2.85276 -4.85961 -10.0522 7.47331
lowerback 18.2088 7.17817 3.01811
upperback 6.1702 9.85177 -1.0036
thorax -2.74564 4.92141 -4.65963
lowerneck -14.2423 -2.67273 -4.93458
upperneck 3.74273 -3.14203 6.03454
head 3.58477 -1.32057 2.42385
rclavicle 6.48038e-014 1.59028e-015
rhumerus 47.402 -26.3686 -87.7032
rradius 127.934
rwrist -47.4191
rhand -17.8411 7.51467
rfingers 7.12502
rthumb 8.42364 -22.2973
lclavicle 6.48038e-014 1.59028e-015
lhumerus -50.5817 30.482 34.4232
lradius 43.813
lwrist 30.939
lhand -33.8164 17.1576
lfingers 7.12502
lthumb -7.00239 47.0218
rfemur -10.5597 12.1268 17.0401
rtibia 33.4459
rfoot -18.3079 -7.803
rtoes 2.87796
lfemur -76.6387 3.76069 -13.4833
ltibia 109.116
lfoot 9.20582 -1.14298
ltoes 4.18615
3017
root -4.75625 18.6561 2.8306 -5.06862 -10.3527 7.61581
lowerback 18.5644 7.43288 3.03606
upperback 6.23799 10.1927 -0.959952
thorax -2.82855 5.08723 -4.72897
lowerneck -13.9152 -2.64514 -4.86489
upperneck 3.50831 -3.11497 5.95469
head 3.45745 -1.3168 2.39271
rclavicle -9.30312e-014 2.70347e-014
rhumerus 47.1861 -25.7501 -88.0436
rradius 128.437
rwrist -47.1983
rhand -17.6314 7.45546
rfingers 7.12502
rthumb 8.62608 -22.3483
lclavicle -9.30312e-014 2.70347e-014
lhumerus -51.0942 30.7085 33.656
lradius 43.0608
lwrist 31.1658
lhand -33.6019 17.2472
lfingers 7.12502
lthumb -6.79525 47.1181
rfemur -10.455 12.0848 16.9121
rtibia 33.3547
rfoot -18.1399 -7.48337
rtoes 3.19796
lfemur -78.3159 3.8557 -13.7841
ltibia 110.399
lfoot 9.06752 -1.45833
ltoes 3.32904
3018
root -4.75986 18.6651 2.8109 -5.29202 -10.5954 7.6725
lowerback 18.855 7.63413 3.11588
upperback 6.33798 10.475 -0.873783
thorax -2.8457 5.22689 -4.76557
lowerneck -13.4675 -2.62218 -4.88234
upperneck 3.16444 -3.08478 5.94347
head 3.28043 -1.31184 2.39822
rclavicle 9.89948e-014 -4.45278e-014
rhumerus 46.8902 -25.0697 -88.3986
rradius 128.945
rwrist -46.9369
rhand -17.5698 7.67631
rfingers 7.12502
rthumb 8.68549 -22.125
lclavicle 9.89948e-014 -4.45278e-014
lhumerus -51.5923 31.3783 32.5993
lradius 41.8917
lwrist 31.0106
lhand -33.6629 17.1761
lfingers 7.12502
lthumb -6.85415 47.0452
rfemur -10.2224 12.058 16.8941
rtibia 33.1063
rfoot -17.8943 -7.22871
rtoes 3.26481
lfemur -79.9249 3.81258 -13.9637
ltibia 111.557
lfoot 9.08557 -1.83316
ltoes 2.92063
3019
root -4.76564 18.7029 2.78603 -5.57817 -10.7814 7.91655
lowerback 19.1871 7.83513 3.06587
upperback 6.53031 10.7281 -0.870359
thorax -2.79402 5.35636 -4.8123
lowerneck -13.4664 -2.693 -4.97486
upperneck 3.03111 -3.16571 6.05123
head 3.24772 -1.34868 2.44095
rclavicle 3.93594e-014 1.11319e-014
rhumerus 46.766 -24.4992 -88.9333
rradius 129.455
rwrist -46.739
rhand -17.339 7.83717
rfingers 7.12502
rthumb 8.90826 -21.9548
lclavicle 3.93594e-014 1.11319e-014
lhumerus -51.8255 31.6186 31.902
lradius 40.8687
lwrist 31.1758
lhand -33.8709 17.5518
lfingers 7.12502
lthumb -7.05498 47.4142
rfemur -9.87637 11.9871 16.6746
rtibia 32.729
rfoot -17.5698 -6.91312
rtoes 3.21803
lfemur -81.1733 3.56443 -14.3132
ltibia 112.386
lfoot 9.0678 -2.07911
ltoes 3.5155
